<?xml version="1.0" encoding="UTF-8" standalone="no"?>
<!DOCTYPE svg PUBLIC "-//W3C//DTD SVG 1.1//EN" "http://www.w3.org/Graphics/SVG/1.1/DTD/svg11.dtd">
<!-- Generated by graphviz version 2.40.1 (20161225.0304)
 -->
<!-- Title: %0 Pages: 1 -->
<svg width="411pt" height="1021pt" viewBox="0.00 0.00 411.00 1020.80" xmlns="http://www.w3.org/2000/svg" xmlns:xlink="http://www.w3.org/1999/xlink">
<g id="graph0" class="graph" transform="scale(1 1) rotate(0) translate(4 1016.8)">
<title>%0</title>
<polygon fill="#ffffff" stroke="transparent" points="-4,4 -4,-1016.8 407,-1016.8 407,4 -4,4"/>
<!-- a -->
<g id="node1" class="node">
<title>a</title>
<ellipse fill="none" stroke="#000000" cx="313" cy="-994.8" rx="27" ry="18"/>
<text text-anchor="middle" x="313" y="-990.6" font-family="Times,serif" font-size="14.00" fill="#000000">a</text>
</g>
<!-- e -->
<g id="node2" class="node">
<title>e</title>
<ellipse fill="none" stroke="#000000" cx="209" cy="-906" rx="27" ry="18"/>
<text text-anchor="middle" x="209" y="-901.8" font-family="Times,serif" font-size="14.00" fill="#000000">e</text>
</g>
<!-- a&#45;&gt;e -->
<g id="edge1" class="edge">
<title>a-&gt;e</title>
<path fill="none" stroke="#ff0000" d="M296.2906,-980.5327C279.309,-966.0331 252.8201,-943.4156 233.4735,-926.8966"/>
<polygon fill="#ff0000" stroke="#ff0000" points="235.5456,-924.0636 225.6679,-920.2318 231.0002,-929.3871 235.5456,-924.0636"/>
<text text-anchor="middle" x="273.5" y="-946.2" font-family="Times,serif" font-size="14.00" fill="#000000">3</text>
</g>
<!-- f -->
<g id="node7" class="node">
<title>f</title>
<ellipse fill="none" stroke="#000000" cx="191" cy="-106.8" rx="27" ry="18"/>
<text text-anchor="middle" x="191" y="-102.6" font-family="Times,serif" font-size="14.00" fill="#000000">f</text>
</g>
<!-- a&#45;&gt;f -->
<g id="edge8" class="edge">
<title>a-&gt;f</title>
<path fill="none" stroke="#000000" d="M324.8151,-978.3436C335.9701,-961.16 351,-932.998 351,-906 351,-906 351,-906 351,-195.6 351,-139.6305 275.2239,-118.6401 227.9678,-110.9918"/>
<polygon fill="#000000" stroke="#000000" points="228.1866,-107.4859 217.7804,-109.4761 227.1564,-114.4097 228.1866,-107.4859"/>
<text text-anchor="middle" x="354.5" y="-546.6" font-family="Times,serif" font-size="14.00" fill="#000000">7</text>
</g>
<!-- b -->
<g id="node4" class="node">
<title>b</title>
<ellipse fill="none" stroke="#000000" cx="83" cy="-817.2" rx="27" ry="18"/>
<text text-anchor="middle" x="83" y="-813" font-family="Times,serif" font-size="14.00" fill="#000000">b</text>
</g>
<!-- e&#45;&gt;b -->
<g id="edge7" class="edge">
<title>e-&gt;b</title>
<path fill="none" stroke="#000000" d="M184.4354,-898.0892C167.8059,-892.0088 145.8774,-882.5262 129,-870 118.429,-862.1543 108.5709,-851.4994 100.7137,-841.8154"/>
<polygon fill="#000000" stroke="#000000" points="103.2614,-839.3904 94.3564,-833.6501 97.7381,-843.6907 103.2614,-839.3904"/>
<text text-anchor="middle" x="132.5" y="-857.4" font-family="Times,serif" font-size="14.00" fill="#000000">4</text>
</g>
<!-- c -->
<g id="node5" class="node">
<title>c</title>
<ellipse fill="none" stroke="#000000" cx="133" cy="-728.4" rx="27" ry="18"/>
<text text-anchor="middle" x="133" y="-724.2" font-family="Times,serif" font-size="14.00" fill="#000000">c</text>
</g>
<!-- e&#45;&gt;c -->
<g id="edge4" class="edge">
<title>e-&gt;c</title>
<path fill="none" stroke="#ff0000" d="M192.345,-891.5381C186.1593,-885.4257 179.5483,-877.8964 175,-870 154.1404,-833.7857 142.8176,-786.2885 137.3434,-756.5539"/>
<polygon fill="#ff0000" stroke="#ff0000" points="140.7488,-755.7074 135.5844,-746.4565 133.8526,-756.9088 140.7488,-755.7074"/>
<text text-anchor="middle" x="161.5" y="-813" font-family="Times,serif" font-size="14.00" fill="#000000">3</text>
</g>
<!-- x -->
<g id="node12" class="node">
<title>x</title>
<ellipse fill="none" stroke="#000000" cx="174" cy="-639.6" rx="27" ry="18"/>
<text text-anchor="middle" x="174" y="-635.4" font-family="Times,serif" font-size="14.00" fill="#000000">x</text>
</g>
<!-- e&#45;&gt;x -->
<g id="edge16" class="edge">
<title>e-&gt;x</title>
<path fill="none" stroke="#000000" d="M206.5943,-887.6892C200.5855,-841.9536 184.8878,-722.4719 177.6958,-667.7306"/>
<polygon fill="#000000" stroke="#000000" points="181.1491,-667.1455 176.3762,-657.6866 174.2088,-668.0574 181.1491,-667.1455"/>
<text text-anchor="middle" x="195.5" y="-768.6" font-family="Times,serif" font-size="14.00" fill="#000000">5</text>
</g>
<!-- n -->
<g id="node3" class="node">
<title>n</title>
<ellipse fill="none" stroke="#000000" cx="131" cy="-550.8" rx="27" ry="18"/>
<text text-anchor="middle" x="131" y="-546.6" font-family="Times,serif" font-size="14.00" fill="#000000">n</text>
</g>
<!-- n&#45;&gt;a -->
<g id="edge2" class="edge">
<title>n-&gt;a</title>
<path fill="none" stroke="#000000" d="M105.1186,-556.0784C66.9412,-565.5473 0,-589.3193 0,-639.6 0,-906 0,-906 0,-906 0,-962.8088 193.2375,-985.1675 276.0474,-992.1408"/>
<polygon fill="#000000" stroke="#000000" points="275.7924,-995.6316 286.0429,-992.9527 276.3591,-988.6545 275.7924,-995.6316"/>
<text text-anchor="middle" x="3.5" y="-768.6" font-family="Times,serif" font-size="14.00" fill="#000000">6</text>
</g>
<!-- o -->
<g id="node11" class="node">
<title>o</title>
<ellipse fill="none" stroke="#000000" cx="191" cy="-462" rx="27" ry="18"/>
<text text-anchor="middle" x="191" y="-457.8" font-family="Times,serif" font-size="14.00" fill="#000000">o</text>
</g>
<!-- n&#45;&gt;o -->
<g id="edge13" class="edge">
<title>n-&gt;o</title>
<path fill="none" stroke="#ff0000" d="M142.2855,-534.0974C151.2527,-520.826 163.934,-502.0577 174.1101,-486.9971"/>
<polygon fill="#ff0000" stroke="#ff0000" points="177.0665,-488.8731 179.7651,-478.6277 171.2664,-484.9541 177.0665,-488.8731"/>
<text text-anchor="middle" x="169.5" y="-502.2" font-family="Times,serif" font-size="14.00" fill="#000000">4</text>
</g>
<!-- b&#45;&gt;c -->
<g id="edge3" class="edge">
<title>b-&gt;c</title>
<path fill="none" stroke="#000000" d="M92.6405,-800.0785C99.9034,-787.1795 109.9902,-769.2655 118.2627,-754.5734"/>
<polygon fill="#000000" stroke="#000000" points="121.5325,-755.8999 123.3891,-745.469 115.4329,-752.4654 121.5325,-755.8999"/>
<text text-anchor="middle" x="115.5" y="-768.6" font-family="Times,serif" font-size="14.00" fill="#000000">2</text>
</g>
<!-- c&#45;&gt;n -->
<g id="edge18" class="edge">
<title>c-&gt;n</title>
<path fill="none" stroke="#000000" d="M132.35,-710.361C131.8684,-696.055 131.2535,-675.5512 131,-657.6 130.6237,-630.9548 130.6699,-600.5666 130.7829,-579.0358"/>
<polygon fill="#000000" stroke="#000000" points="134.2833,-578.9633 130.8441,-568.9422 127.2834,-578.9208 134.2833,-578.9633"/>
<text text-anchor="middle" x="134.5" y="-635.4" font-family="Times,serif" font-size="14.00" fill="#000000">5</text>
</g>
<!-- c&#45;&gt;x -->
<g id="edge17" class="edge">
<title>c-&gt;x</title>
<path fill="none" stroke="#ff0000" d="M141.1003,-710.856C146.9783,-698.125 155.0351,-680.6753 161.7043,-666.2306"/>
<polygon fill="#ff0000" stroke="#ff0000" points="165.0418,-667.3516 166.0561,-656.8054 158.6865,-664.4172 165.0418,-667.3516"/>
<text text-anchor="middle" x="160.5" y="-679.8" font-family="Times,serif" font-size="14.00" fill="#000000">3</text>
</g>
<!-- d -->
<g id="node6" class="node">
<title>d</title>
<ellipse fill="none" stroke="#000000" cx="246" cy="-284.4" rx="27" ry="18"/>
<text text-anchor="middle" x="246" y="-280.2" font-family="Times,serif" font-size="14.00" fill="#000000">d</text>
</g>
<!-- d&#45;&gt;a -->
<g id="edge6" class="edge">
<title>d-&gt;a</title>
<path fill="none" stroke="#000000" d="M263.0652,-298.5076C280.4902,-314.5984 305,-342.6597 305,-373.2 305,-506.4 305,-506.4 305,-506.4 305,-585.4134 313,-604.9866 313,-684 313,-906 313,-906 313,-906 313,-926.2994 313,-949.209 313,-966.6736"/>
<polygon fill="#000000" stroke="#000000" points="309.5001,-966.7721 313,-976.7721 316.5001,-966.7721 309.5001,-966.7721"/>
<text text-anchor="middle" x="315.5" y="-635.4" font-family="Times,serif" font-size="14.00" fill="#000000">9</text>
</g>
<!-- d&#45;&gt;e -->
<g id="edge5" class="edge">
<title>d-&gt;e</title>
<path fill="none" stroke="#000000" d="M244.3078,-302.5974C240.0079,-350.4657 229,-483.8797 229,-595.2 229,-817.2 229,-817.2 229,-817.2 229,-838.0079 223.709,-860.9029 218.5698,-878.2334"/>
<polygon fill="#000000" stroke="#000000" points="215.0858,-877.6476 215.4382,-888.2366 221.7661,-879.739 215.0858,-877.6476"/>
<text text-anchor="middle" x="232.5" y="-591" font-family="Times,serif" font-size="14.00" fill="#000000">7</text>
</g>
<!-- g -->
<g id="node9" class="node">
<title>g</title>
<ellipse fill="none" stroke="#000000" cx="135" cy="-195.6" rx="27" ry="18"/>
<text text-anchor="middle" x="135" y="-191.4" font-family="Times,serif" font-size="14.00" fill="#000000">g</text>
</g>
<!-- d&#45;&gt;g -->
<g id="edge22" class="edge">
<title>d-&gt;g</title>
<path fill="none" stroke="#ff0000" d="M234.7039,-267.7242C226.546,-256.5419 214.7567,-242.0123 202,-231.6 191.6105,-223.1198 178.9192,-215.7021 167.3878,-209.8386"/>
<polygon fill="#ff0000" stroke="#ff0000" points="168.573,-206.5228 158.0502,-205.2896 165.5072,-212.8158 168.573,-206.5228"/>
<text text-anchor="middle" x="221.5" y="-235.8" font-family="Times,serif" font-size="14.00" fill="#000000">3</text>
</g>
<!-- l -->
<g id="node8" class="node">
<title>l</title>
<ellipse fill="none" stroke="#000000" cx="191" cy="-18" rx="27" ry="18"/>
<text text-anchor="middle" x="191" y="-13.8" font-family="Times,serif" font-size="14.00" fill="#000000">l</text>
</g>
<!-- f&#45;&gt;l -->
<g id="edge9" class="edge">
<title>f-&gt;l</title>
<path fill="none" stroke="#ff0000" d="M191,-88.4006C191,-76.2949 191,-60.2076 191,-46.4674"/>
<polygon fill="#ff0000" stroke="#ff0000" points="194.5001,-46.072 191,-36.072 187.5001,-46.0721 194.5001,-46.072"/>
<text text-anchor="middle" x="194.5" y="-58.2" font-family="Times,serif" font-size="14.00" fill="#000000">2</text>
</g>
<!-- l&#45;&gt;a -->
<g id="edge25" class="edge">
<title>l-&gt;a</title>
<path fill="none" stroke="#000000" d="M216.885,-23.8656C270.5553,-36.7791 389,-69.503 389,-106.8 389,-906 389,-906 389,-906 389,-936.2748 363.1867,-961.4225 341.6477,-977.1363"/>
<polygon fill="#000000" stroke="#000000" points="339.5852,-974.3074 333.3666,-982.8853 343.5771,-980.0576 339.5852,-974.3074"/>
<text text-anchor="middle" x="396" y="-502.2" font-family="Times,serif" font-size="14.00" fill="#000000">10</text>
</g>
<!-- l&#45;&gt;b -->
<g id="edge24" class="edge">
<title>l-&gt;b</title>
<path fill="none" stroke="#ff0000" d="M164.3494,-21.2462C120.5139,-28.2357 38,-49.061 38,-106.8 38,-728.4 38,-728.4 38,-728.4 38,-752.2427 51.0676,-776.1754 63.1191,-793.1775"/>
<polygon fill="#ff0000" stroke="#ff0000" points="60.4685,-795.4778 69.254,-801.3995 66.0789,-791.2916 60.4685,-795.4778"/>
<text text-anchor="middle" x="41.5" y="-413.4" font-family="Times,serif" font-size="14.00" fill="#000000">7</text>
</g>
<!-- g&#45;&gt;n -->
<g id="edge21" class="edge">
<title>g-&gt;n</title>
<path fill="none" stroke="#000000" d="M134.6781,-213.6272C134.3858,-231.5677 134,-259.8859 134,-284.4 134,-462 134,-462 134,-462 134,-482.311 133.2064,-505.2203 132.4355,-522.6818"/>
<polygon fill="#000000" stroke="#000000" points="128.9344,-522.6262 131.9657,-532.7781 135.9268,-522.9516 128.9344,-522.6262"/>
<text text-anchor="middle" x="137.5" y="-369" font-family="Times,serif" font-size="14.00" fill="#000000">6</text>
</g>
<!-- g&#45;&gt;b -->
<g id="edge10" class="edge">
<title>g-&gt;b</title>
<path fill="none" stroke="#000000" d="M117.9348,-209.7076C100.5098,-225.7984 76,-253.8597 76,-284.4 76,-728.4 76,-728.4 76,-728.4 76,-748.7624 77.8518,-771.6702 79.6506,-789.1182"/>
<polygon fill="#000000" stroke="#000000" points="76.1867,-789.6415 80.7466,-799.2049 83.1458,-788.8852 76.1867,-789.6415"/>
<text text-anchor="middle" x="79.5" y="-502.2" font-family="Times,serif" font-size="14.00" fill="#000000">5</text>
</g>
<!-- g&#45;&gt;f -->
<g id="edge23" class="edge">
<title>g-&gt;f</title>
<path fill="none" stroke="#ff0000" d="M145.5332,-178.8974C153.8243,-165.7501 165.5175,-147.208 174.9692,-132.2203"/>
<polygon fill="#ff0000" stroke="#ff0000" points="178.1403,-133.7532 180.5141,-123.4277 172.2193,-130.0192 178.1403,-133.7532"/>
<text text-anchor="middle" x="171.5" y="-147" font-family="Times,serif" font-size="14.00" fill="#000000">2</text>
</g>
<!-- m -->
<g id="node10" class="node">
<title>m</title>
<ellipse fill="none" stroke="#000000" cx="191" cy="-373.2" rx="27" ry="18"/>
<text text-anchor="middle" x="191" y="-369" font-family="Times,serif" font-size="14.00" fill="#000000">m</text>
</g>
<!-- m&#45;&gt;d -->
<g id="edge11" class="edge">
<title>m-&gt;d</title>
<path fill="none" stroke="#ff0000" d="M201.3451,-356.4974C209.4366,-343.4333 220.8273,-325.0425 230.0789,-310.1053"/>
<polygon fill="#ff0000" stroke="#ff0000" points="233.2242,-311.674 235.5143,-301.3296 227.2732,-307.9881 233.2242,-311.674"/>
<text text-anchor="middle" x="226.5" y="-324.6" font-family="Times,serif" font-size="14.00" fill="#000000">1</text>
</g>
<!-- m&#45;&gt;f -->
<g id="edge12" class="edge">
<title>m-&gt;f</title>
<path fill="none" stroke="#000000" d="M191,-354.8892C191,-309.1536 191,-189.6719 191,-134.9306"/>
<polygon fill="#000000" stroke="#000000" points="194.5001,-134.8866 191,-124.8866 187.5001,-134.8867 194.5001,-134.8866"/>
<text text-anchor="middle" x="194.5" y="-235.8" font-family="Times,serif" font-size="14.00" fill="#000000">2</text>
</g>
<!-- o&#45;&gt;e -->
<g id="edge14" class="edge">
<title>o-&gt;e</title>
<path fill="none" stroke="#000000" d="M206.3797,-476.8084C228.5872,-499.8626 267,-546.7436 267,-595.2 267,-817.2 267,-817.2 267,-817.2 267,-843.5475 248.8807,-868.1835 232.8969,-884.7903"/>
<polygon fill="#000000" stroke="#000000" points="230.425,-882.3123 225.776,-891.8327 235.3473,-887.2894 230.425,-882.3123"/>
<text text-anchor="middle" x="270.5" y="-679.8" font-family="Times,serif" font-size="14.00" fill="#000000">6</text>
</g>
<!-- o&#45;&gt;m -->
<g id="edge15" class="edge">
<title>o-&gt;m</title>
<path fill="none" stroke="#ff0000" d="M191,-443.6006C191,-431.4949 191,-415.4076 191,-401.6674"/>
<polygon fill="#ff0000" stroke="#ff0000" points="194.5001,-401.272 191,-391.272 187.5001,-401.2721 194.5001,-401.272"/>
<text text-anchor="middle" x="194.5" y="-413.4" font-family="Times,serif" font-size="14.00" fill="#000000">1</text>
</g>
<!-- x&#45;&gt;n -->
<g id="edge19" class="edge">
<title>x-&gt;n</title>
<path fill="none" stroke="#ff0000" d="M165.5046,-622.056C159.2805,-609.2025 150.7274,-591.5393 143.6941,-577.0148"/>
<polygon fill="#ff0000" stroke="#ff0000" points="146.8399,-575.4803 139.3315,-568.0054 140.5397,-578.5311 146.8399,-575.4803"/>
<text text-anchor="middle" x="159.5" y="-591" font-family="Times,serif" font-size="14.00" fill="#000000">2</text>
</g>
<!-- x&#45;&gt;o -->
<g id="edge20" class="edge">
<title>x-&gt;o</title>
<path fill="none" stroke="#000000" d="M175.7236,-621.5934C178.6892,-590.612 184.7776,-527.006 188.3069,-490.1346"/>
<polygon fill="#000000" stroke="#000000" points="191.803,-490.3423 189.2718,-480.0543 184.8348,-489.6752 191.803,-490.3423"/>
<text text-anchor="middle" x="187.5" y="-546.6" font-family="Times,serif" font-size="14.00" fill="#000000">4</text>
</g>
</g>
</svg>